<svg id="Layer_1" data-name="Layer 1" xmlns="http://www.w3.org/2000/svg" xmlns:xlink="http://www.w3.org/1999/xlink" viewBox="0 0 2500 2500"><defs><style>.cls-1{fill:none;}.cls-2{fill:#2062af;}.cls-3{fill:#3c9cd7;}.cls-4{fill:#fff;}.cls-5{fill:url(#linear-gradient);}.cls-6{fill:url(#linear-gradient-2);}.cls-7{fill:url(#linear-gradient-3);}.cls-8{opacity:0.05;isolation:isolate;}.cls-9{fill:url(#linear-gradient-4);}</style><linearGradient id="linear-gradient" x1="115.97" y1="-456.75" x2="115.97" y2="-537.55" gradientTransform="translate(484.84 3447.71) scale(4.64)" gradientUnits="userSpaceOnUse"><stop offset="0.39" stop-color="#d1d3d4" stop-opacity="0"/><stop offset="1" stop-color="#d1d3d4"/></linearGradient><linearGradient id="linear-gradient-2" x1="216.93" y1="-497.05" x2="216.93" y2="-581.04" xlink:href="#linear-gradient"/><linearGradient id="linear-gradient-3" x1="67.38" y1="-420.71" x2="261.44" y2="-420.71" gradientTransform="translate(484.84 3447.71) scale(4.64)" gradientUnits="userSpaceOnUse"><stop offset="0" stop-color="#e8e7e5"/><stop offset="1" stop-color="#fff"/></linearGradient><linearGradient id="linear-gradient-4" x1="58.45" y1="-560.48" x2="269.14" y2="-560.48" xlink:href="#linear-gradient-3"/></defs><path class="cls-1" d="M0-159.92H2500v2500H0Z" transform="translate(0 159.92)"/><path class="cls-2" d="M1882.25,2009.9,1250,2180.15,617.72,2009.9,471.82,429.26H2028.17Z" transform="translate(0 159.92)"/><path class="cls-3" d="M1250,557.29V2044.37l1.43.39L1763.08,1907l118.1-1349.69Z" transform="translate(0 159.92)"/><path class="cls-4" d="M891.16,197V103h137.26V0H788.21V291h240.21V197ZM1275.34,103h96V0H1131.07V103c32.14,32.14,48.9,47.52,95.39,94-27.18,0-95.39.1-95.39.09V291H1371.3V197l-96-94.08Zm340.49,0h96V0H1471.54V103c32.14,32.14,48.91,47.52,95.4,94-27.17,0-95.4.1-95.4.09V291h240.25V197l-96-94.08Z" transform="translate(0 159.92)"/><path class="cls-4" d="M1249.42,952.51,796.9,1141l15,186.59,437.52-187.07,465.41-199,19.3-190.88L1249.42,952.51Z" transform="translate(0 159.92)"/><path class="cls-5" d="M796.89,1141l15,186.59,437.52-187.07v-188Z" transform="translate(0 159.92)"/><path class="cls-6" d="M1734.13,750.64,1249.42,952.51v188l465.41-199Z" transform="translate(0 159.92)"/><path class="cls-7" d="M797.59,1141l15,186.59,671.32,2.14-15,248.8L1248,1640.7l-212.35-53.62-12.87-154.42H825.47l25.73,298.11,398.94,118,396.78-115.82L1698.4,1141Z" transform="translate(0 159.92)"/><path class="cls-8" d="M1249.42,1141H796.9l15,186.59,437.52,1.4V1141Zm0,499.12-2.14.6L1035,1587.08l-12.86-154.42H824.78l25.73,298.12,398.91,118Z" transform="translate(0 159.92)"/><path class="cls-9" d="M756.14,750.64h978l-19.3,190.88H779.73L756.14,750.64Z" transform="translate(0 159.92)"/><path class="cls-8" d="M1249.42,750.64H756.14l23.59,190.88h469.69V750.64Z" transform="translate(0 159.92)"/></svg>