<svg id="Layer_1" data-name="Layer 1" xmlns="http://www.w3.org/2000/svg" xmlns:xlink="http://www.w3.org/1999/xlink" viewBox="0 0 67.05 25"><defs><style>.cls-1{fill:#fff;}</style><symbol id="A" data-name="A" viewBox="0 0 105.32 23.5"><path class="cls-1" d="M32.67,0V23h1.25V19.42a5.08,5.08,0,0,1,.41.51A6.19,6.19,0,0,0,40,23.44a6.63,6.63,0,0,0,6.52-3.51A11.28,11.28,0,0,0,46.78,9.6C45.51,6.76,42.38,5.34,39,5.86a6.27,6.27,0,0,0-5,3.31V0Zm1.25,14.89.28-2.7c.49-3.08,2.31-4.9,5.17-5.25a5.88,5.88,0,0,1,6.46,3.74,10,10,0,0,1-.22,8.24,5.75,5.75,0,0,1-6.07,3.35,5.6,5.6,0,0,1-5-4.14,29.81,29.81,0,0,1-.61-3.24Zm39.5-3.13a6.74,6.74,0,0,0-6.59-6C61.59,5.54,59.13,9,58.74,13a11.59,11.59,0,0,0,1,6.38,7.1,7.1,0,0,0,7.41,4,6.79,6.79,0,0,0,6-5.18,35,35,0,0,0,.59-3.83H60c-.25-3.64,1.7-6.57,4.48-7.27C68,6.26,70.92,7.75,72,11c.24.84.67,1,1.44.72ZM60,15.55H72.34c-.08,3.88-2.5,6.7-5.77,6.73C62.87,22.34,60.18,19.63,60,15.55ZM76,11.68h1.21A4.83,4.83,0,0,1,80,7.51a7.41,7.41,0,0,1,6.45.17,2.89,2.89,0,0,1,1.7,2.85,2.62,2.62,0,0,1-1.77,2.63c-1.32.49-2.74.76-4.09,1.2a30.28,30.28,0,0,0-4.12,1.5c-2.18,1.07-2.31,5.21.16,6.52a8.67,8.67,0,0,0,8.3.13,4.35,4.35,0,0,0,2.21-4.46h-1c0,.05-.09.09-.09.15-.13,3.3-2.91,4.33-5.88,4a7.39,7.39,0,0,1-2.56-.78,2.55,2.55,0,0,1-1.48-2.55,2.57,2.57,0,0,1,1.7-2.4c1.31-.48,2.68-.78,4-1.16l3.25-.85A3.84,3.84,0,0,0,89.43,11a4.1,4.1,0,0,0-2.21-4.26c-2.84-1.6-7.52-1.18-9.6.85A5.64,5.64,0,0,0,76,11.68Zm28.78,6.37H103.6a2.41,2.41,0,0,1-.08.42,3.68,3.68,0,0,1-3,3.55,7.36,7.36,0,0,1-4.77-.23A2.9,2.9,0,0,1,93.63,19a2.68,2.68,0,0,1,2.05-2.69L100.85,15a13.63,13.63,0,0,0,1.65-.5,4.25,4.25,0,0,0,.22-7.92,9.46,9.46,0,0,0-7.66-.08,5.31,5.31,0,0,0-3.2,5.16H93a6.19,6.19,0,0,1,9.44-3.95,3,3,0,0,1,1.64,2.84,2.63,2.63,0,0,1-1.8,2.61c-1.33.5-2.74.76-4.09,1.2A30.63,30.63,0,0,0,94,15.86c-2.12,1.05-2.29,5.16.13,6.47a8.55,8.55,0,0,0,8.44.09,4.42,4.42,0,0,0,2.14-4.36ZM30.61,6.22a2,2,0,0,0-2.42.92L23.8,13.22l-.64.85L18.05,7.13a1.86,1.86,0,0,0-2.3-.9l6.58,8.82-6.12,8a2,2,0,0,0,2.42-.85L23.19,16l4.59,6.13a1.83,1.83,0,0,0,2.28.85l-2.37-3.15-3.22-4.18a.85.85,0,0,1-.07-1.2l.07-.07L30.6,6.22ZM58.54,23.11v-1.2A6.16,6.16,0,0,1,52,16.16c0-.21,0-.41,0-.62V6.18H50.76V23H52V19.58C53.43,22.1,55.7,23,58.55,23.1ZM0,15.15.54,17.8A7.37,7.37,0,0,0,12.14,22c2.41-1.9,3-4.59,2.9-7.62H1.42c-.22-5.41,3.69-8.68,8.68-7A5.21,5.21,0,0,1,13.4,11c.26.85.7,1,1.49.75a6.9,6.9,0,0,0-3.3-5A8,8,0,0,0,2.27,7.9,8.42,8.42,0,0,0,.18,12.82a3.37,3.37,0,0,1-.17.85c0,.51,0,1,0,1.48Zm1.44.37H13.75c-.07,3.92-2.55,6.7-5.85,6.73-3.68.05-6.31-2.67-6.47-6.72Z"/></symbol></defs><use width="105.32" height="23.5" transform="matrix(0.6, 0, 0, -0.6, 1.78, 21.87)" xlink:href="#A"/></svg>