<svg id="Layer_1" data-name="Layer 1" xmlns="http://www.w3.org/2000/svg" viewBox="0 0 362.73 512"><defs><style>.cls-1{fill:#e44d26;}.cls-2{fill:#f16529;}.cls-3{fill:#ebebeb;}.cls-4{fill:#fff;}</style></defs><polygon class="cls-1" points="33.01 470.88 0 100.62 362.73 100.62 329.69 470.82 181.15 512 33.01 470.88"/><polygon class="cls-2" points="181.37 480.52 301.4 447.25 329.64 130.89 181.37 130.89 181.37 480.52"/><polygon class="cls-3" points="181.37 268.22 121.28 268.22 117.13 221.72 181.37 221.72 181.37 176.31 181.21 176.31 67.5 176.31 68.59 188.49 79.75 313.63 181.37 313.63 181.37 268.22"/><polygon class="cls-3" points="181.37 386.15 181.17 386.21 130.59 372.55 127.36 336.33 102.79 336.33 81.78 336.33 88.14 407.63 181.16 433.46 181.37 433.4 181.37 386.15"/><path class="cls-4" d="M108.38,0h23.08V22.8h21.11V0h23.08V69H152.57V45.92H131.46V69H108.38V0Z" transform="translate(-74.63)"/><path class="cls-4" d="M206,22.9H185.68V0H249.4V22.9H229.07V69H206V22.9Z" transform="translate(-74.63)"/><path class="cls-4" d="M259.51,0h24.06l14.81,24.26L313.16,0h24.07V69h-23V34.82L298.38,59.37H298L282.09,34.82V69H259.51Z" transform="translate(-74.63)"/><path class="cls-4" d="M348.72,0H371.8V46.22h32.46V69H348.72Z" transform="translate(-74.63)"/><polygon class="cls-4" points="181.21 268.22 181.21 313.63 237.13 313.63 231.86 372.52 181.21 386.19 181.21 433.44 274.3 407.63 274.99 399.96 285.66 280.41 286.77 268.22 274.53 268.22 181.21 268.22"/><polygon class="cls-4" points="181.21 176.31 181.21 204.51 181.21 221.6 181.21 221.72 290.75 221.72 290.75 221.72 290.9 221.72 291.81 211.51 293.88 188.49 294.96 176.31 181.21 176.31"/></svg>