<svg id="svg64" xmlns="http://www.w3.org/2000/svg" viewBox="0 0 397.32 559.5"><defs><style>.cls-1{fill:#fff;}.cls-2{fill:#eaebec;}.cls-3{fill:#f0be25;}.cls-4{fill:#e4a126;}</style></defs><path id="path118" class="cls-1" d="M1.33,109.33l.07,5c0,2.75,8,93.8,17.7,202.34L36.74,514,116,536.2c43.61,12.21,80.19,22.26,81.29,22.34s38.17-9.87,82.37-22.11c70.87-19.63,80.44-22.58,80.95-25,.71-3.38,35.41-394.9,35.38-399.09l0-3H1.33Z"/><path id="path88" class="cls-2" d="M116.67,537.53l-80-22.36-1.05-5.92C34.69,504,0,116.52,0,111.4c0-1.86,20.26-2.07,198.67-2.07,188.32,0,198.66.12,198.65,2.34-.06,9.55-36,402.16-36.86,402.94-1.11,1-155.95,44.12-161.13,44.89-1.46.21-38.66-9.67-82.66-22Zm132.44-79c26.89-7.42,49.28-13.87,49.75-14.34s3.62-32.35,7-70.85,6.47-72.55,6.89-75.66l.76-5.67H197.33v49.33h62.72l-.62,3c-.35,1.65-1.68,15.83-3,31.51-1.36,16.62-3,29.15-3.87,30.05s-13.62,4.75-28.4,8.69l-26.86,7.16v25.13c0,17.15.46,25.13,1.45,25.13.79,0,23.44-6.07,50.33-13.48ZM312.73,261c-.88-6.53-8.73-94.16-8.73-97.47,0-2-4.62-2.2-52.67-2.2H198.67v51.59l23.66.91c13,.5,26.72,1.27,30.45,1.7l6.77.78,1.65,20.18c.9,11.1,2,22.43,2.39,25.18l.75,5H313.5Z"/><path id="path80" class="cls-3" d="M116,536.2,36.74,514,19.1,316.67C9.4,208.13,1.43,117.08,1.4,114.33l-.07-5H396l0,3c0,4.19-34.68,395.71-35.38,399.09-.51,2.43-10.08,5.39-80.95,25-44.2,12.24-81.27,22.19-82.37,22.11S159.65,548.41,116,536.2Zm133.13-76.74c27.41-7.62,50.23-14.49,50.7-15.26s3.75-34.28,7.28-74.46,6.7-74.12,7.05-75.41c.61-2.2-4.05-2.33-84.51-2.33H144.54l3.62-38.33c2-21.09,3.67-38.39,3.73-38.46s12.56-.46,27.78-.88c25-.69,76.4,1.3,78.12,3,.65.64,4.88,42.15,4.88,47.81,0,2.8.37,2.84,25.83,2.84h25.84l-.61-5.67c-.33-3.11-2.52-27.26-4.86-53.66l-4.26-48L205,160.32c-79.27-.27-99.64,0-99.65,1.34,0,.92-.58,6.77-1.29,13-1.7,15.08-14.7,160.82-14.7,164.84v3.16H258.9l-.75,5c-.42,2.75-1.74,16.7-2.93,31s-2.56,26.37-3,26.82C251,406.68,201.07,420,198,420c-1.45,0-14.33-3.22-28.63-7.14l-26-7.11-1-11.2c-.52-6.15-1.32-14.94-1.77-19.52l-.82-8.33H89.33l.06,5c.1,9.35,6.17,72.33,7,73.21s97.91,28.26,100.89,28.36c1.1,0,24.43-6.16,51.84-13.78Z"/><path id="path78" class="cls-4" d="M116,536.2,36.74,514,19.1,316.67C9.4,208.13,1.43,117.08,1.4,114.33l-.07-5H396l0,3c0,4.19-34.68,395.71-35.38,399.09-.51,2.43-10.08,5.39-80.95,25-44.2,12.24-81.27,22.19-82.37,22.11S159.65,548.41,116,536.2Zm147.87-29.7c34.88-9.62,64.08-18.17,64.88-19C330,486.22,360.16,156.05,360,145l0-3.67H198.67V160H152c-36.44,0-46.67.37-46.68,1.67,0,.91-.58,6.76-1.29,13-1.7,15.08-14.7,160.82-14.7,164.84v3.16H198.67v38.66c0,30.06-.37,38.66-1.67,38.64-.92,0-13.37-3.22-27.67-7.14l-26-7.11-1-11.2c-.52-6.15-1.32-14.94-1.77-19.52l-.82-8.33H89.33l.06,5c.16,14.3,6.35,72.68,7.8,73.57.88.55,24.07,7.21,51.54,14.81l49.94,13.82v25.07c0,13.78.41,25.06.91,25.06s29.45-7.87,64.33-17.5ZM148,254c1.92-20.88,3.75-38.21,4.07-38.5s10.93-.81,23.58-1.16l23-.63V292H144.54Z"/><path id="path76" class="cls-1" d="M126.67,62V49.33h36V0H188V74.67H126.67ZM200,64.67v-10h16.67c9.16,0,16.66-.34,16.66-.76S225.83,45,216.67,35.1L200,17V0h69.33V19.92l-16.27.37-16.28.38,16.95,18.24,16.94,18.25V74.67H200Z"/></svg>