<svg id="Layer_1" data-name="Layer 1" xmlns="http://www.w3.org/2000/svg" viewBox="0 0 446.31 170.31"><defs><style>.cls-1{fill:#fff;}.cls-2{fill:#7acef4;}</style></defs><path class="cls-1" d="M173.31,129.88c0,1-.1,1.93-.22,3l3.88-7-.43-2.29,3.9-.6,1.42,9.75,1.79-6.11a7.24,7.24,0,0,0,.23-1.49,5.73,5.73,0,0,0-.18-1.58l4.08-.78A11.09,11.09,0,0,1,188,125a10.09,10.09,0,0,1-1,3.66l-3.28,8.83h-4.86l-1-6.59-3.8,6.59h-4.71a95.14,95.14,0,0,0-.47-14l4.05-.63A39.57,39.57,0,0,1,173.31,129.88Z"/><path class="cls-1" d="M198.62,126.51c-1.89,1-2.59,1.4-4.29,2.44l-1.82,8.56h-4.2l3-14.16,3.71-.63-.16,2a32.91,32.91,0,0,1,3.86-2Z"/><path class="cls-1" d="M201.11,123.32l4.35-.6-3.14,14.79h-4.21Zm1.36-6.41,4.34-.6-1,4.47-4.31.6Z"/><path class="cls-1" d="M213.2,126.36l-1.54,7.24a2.73,2.73,0,0,0-.07.39c0,.21.11.3.41.3a6.66,6.66,0,0,0,2.28-.6l.74,2.93a10.46,10.46,0,0,1-4.67,1.19c-2.11,0-3.21-1-3.15-2.74a4.52,4.52,0,0,1,.08-.63l1.71-8.08h-2.14l.71-3.37h2.15l.72-3.49,4.34-.59-.86,4.08h3.46l-1,3.37Z"/><path class="cls-1" d="M218.2,128.18c.71-3.34,2.28-5.49,6.87-5.49,2.74,0,4.79,1.19,4.7,3.64-.1,2.83-1.6,4.14-5.22,5.22-1.78.53-1.8.53-3.07.86l-.21,1c-.11.53-.07,1,.71,1a17,17,0,0,0,5.75-1.61l.7,3a14.79,14.79,0,0,1-7.17,2c-3,0-4.24-1.31-4.16-3.79a10,10,0,0,1,.24-1.76Zm7.65-1.4c0-.51-.42-.84-1.19-.84-1.52,0-2,.87-2.25,2.06l-.21,1c.72-.18,1.05-.24,1.92-.5C225.27,128.18,225.82,127.64,225.85,126.78Z"/><path class="cls-1" d="M240.62,117.06l4.34-.6-4.43,21h-4.2Z"/><path class="cls-1" d="M245.51,128.18c.71-3.34,2.27-5.49,6.86-5.49,2.75,0,4.79,1.19,4.71,3.64-.1,2.83-1.61,4.14-5.22,5.22-1.78.53-1.81.53-3.07.86l-.22,1c-.11.53-.06,1,.71,1a17,17,0,0,0,5.75-1.61l.7,3a14.78,14.78,0,0,1-7.16,2c-3,0-4.25-1.31-4.16-3.79a9.12,9.12,0,0,1,.24-1.76Zm7.65-1.4c0-.51-.42-.84-1.2-.84-1.52,0-2,.87-2.25,2.06l-.21,1c.72-.18,1.05-.24,1.93-.5C252.57,128.18,253.12,127.64,253.16,126.78Z"/><path class="cls-1" d="M257.42,136.85l.92-3.1a11.09,11.09,0,0,0,3.91.75c1.4,0,1.5-.42,1.64-1.1s-.26-1-1.87-1.88c-3-1.61-3.07-2.69-2.6-4.86.67-3.13,1.63-4,5.65-4a15.3,15.3,0,0,1,4.3.69l-.8,3.16a15.64,15.64,0,0,0-3.64-.54c-1.25,0-1.44.15-1.62.92s0,.84,1.38,1.59c3.28,1.79,3.76,2.41,3.26,4.71-.71,3.28-1.71,4.59-6.06,4.59A12.29,12.29,0,0,1,257.42,136.85Z"/><path class="cls-1" d="M269.47,136.85l.91-3.1a11.14,11.14,0,0,0,3.91.75c1.4,0,1.5-.42,1.65-1.1s-.27-1-1.88-1.88c-3-1.61-3.06-2.69-2.6-4.86.68-3.13,1.63-4,5.66-4a15.17,15.17,0,0,1,4.29.69l-.79,3.16A15.8,15.8,0,0,0,277,126c-1.25,0-1.44.15-1.61.92s0,.84,1.37,1.59c3.28,1.79,3.77,2.41,3.27,4.71-.71,3.28-1.71,4.59-6.07,4.59A12.19,12.19,0,0,1,269.47,136.85Z"/><path class="cls-1" d="M281,140.76l2.41-3.25h-1.58l1-4.95h4.2l-1.13,5.31L282.46,142Z"/><path class="cls-1" d="M304,137.51l-.07-1.25a7.28,7.28,0,0,1-4.68,1.55c-3.16,0-3.87-1.91-3.19-5.16l.83-3.91c.71-3.45,1.7-6.05,7.81-6.05a10.76,10.76,0,0,1,1.75.15l1.22-5.78,4.31-.6-4.43,21Zm-3.84-4.35c-.18.77,0,1.13.76,1.13a5.2,5.2,0,0,0,3.42-1.49l1.36-6.47a9,9,0,0,0-1.63-.12c-2.18,0-2.67,1.16-3,2.56Z"/><path class="cls-1" d="M311.42,133a5.93,5.93,0,0,1,.13-1l.71-3.36c.79-3.73,2.68-5.88,7.75-5.88,3.9,0,5.58,2.24,5.49,4.83a6.63,6.63,0,0,1-.12,1l-.72,3.36c-.74,3.49-2.5,5.88-7.77,5.88C313.19,137.81,311.33,135.6,311.42,133Zm9.87-5.1c0-1.07-.6-1.64-2-1.64a2.6,2.6,0,0,0-2.82,2.24l-.75,3.6a3.42,3.42,0,0,0-.08.6c0,1,.59,1.64,2,1.64a2.58,2.58,0,0,0,2.82-2.24l.75-3.6A4.74,4.74,0,0,0,321.29,127.85Z"/><path class="cls-1" d="M351.16,127.64a2.39,2.39,0,0,0,.08-.45c0-.29-.13-.41-.55-.41a12.54,12.54,0,0,0-3.84,1.4l-2,9.33h-4.18l2.08-9.87a3.35,3.35,0,0,0,.07-.45c0-.29-.13-.41-.55-.41a12.44,12.44,0,0,0-3.8,1.37l-2,9.36h-4.2l3-14.16,3.71-.63-.08,1.61a14,14,0,0,1,5.78-1.64,2.2,2.2,0,0,1,2.44,1.7,12,12,0,0,1,5.94-1.7c1.94,0,2.61,1.11,2.55,3a8.66,8.66,0,0,1-.21,1.67l-2.15,10.2h-4.2Z"/><path class="cls-1" d="M357.06,133a5.91,5.91,0,0,1,.12-1l.72-3.36c.78-3.73,2.68-5.88,7.74-5.88,3.91,0,5.59,2.24,5.5,4.83a6.69,6.69,0,0,1-.13,1l-.71,3.36c-.75,3.49-2.5,5.88-7.78,5.88C358.83,137.81,357,135.6,357.06,133Zm9.86-5.1c0-1.07-.59-1.64-2-1.64a2.59,2.59,0,0,0-2.81,2.24l-.76,3.6a4.74,4.74,0,0,0-.08.6c0,1,.6,1.64,2,1.64a2.58,2.58,0,0,0,2.82-2.24l.75-3.6A3.42,3.42,0,0,0,366.92,127.85Z"/><path class="cls-1" d="M382.29,126.51c-1.88,1-2.58,1.4-4.28,2.44l-1.82,8.56H372l3-14.16,3.72-.63-.16,2a32.15,32.15,0,0,1,3.86-2Z"/><path class="cls-1" d="M383.25,128.18c.71-3.34,2.28-5.49,6.87-5.49,2.74,0,4.78,1.19,4.7,3.64-.1,2.83-1.61,4.14-5.22,5.22-1.78.53-1.81.53-3.07.86l-.22,1c-.1.53-.06,1,.71,1a17,17,0,0,0,5.75-1.61l.71,3a14.82,14.82,0,0,1-7.17,2c-3,0-4.25-1.31-4.16-3.79a10,10,0,0,1,.24-1.76Zm7.65-1.4c0-.51-.42-.84-1.19-.84-1.52,0-2,.87-2.25,2.06l-.22,1c.73-.18,1.06-.24,1.93-.5C390.31,128.18,390.87,127.64,390.9,126.78Z"/><path class="cls-1" d="M396.54,132.56h4.2l-1,4.95h-4.2Z"/><path class="cls-2" d="M11.25,52.63C4.14,62.84,5,76.12,10.46,87c.12.26.26.51.39.77s.16.33.26.5a1.91,1.91,0,0,0,.16.27c.08.18.18.34.27.51l.52.89c.1.16.2.32.31.48.18.32.4.63.59.94l.26.4c.28.42.56.84.87,1.26,0,0,0,0,0,0l.15.2.79,1,.3.38c.25.3.49.61.73.91.1.1.19.22.29.33.32.39.67.78,1,1.17l0,0s0,0,0,0l1,1.1.35.33c.26.27.53.54.82.81l.34.33c.37.35.74.7,1.13,1l0,0,.19.16c.35.3.69.59,1,.87l.42.34.87.68.46.35,1,.69c.12.08.23.17.36.25l.09.07.94.62.4.27,1.46.9.42.23c.36.21.73.41,1.1.61.2.12.4.21.61.32l.78.41.19.08.32.16c.41.2.83.39,1.26.58l.25.12c.49.21,1,.41,1.46.6l.36.14c.45.18.91.35,1.37.51l.17.06c.51.18,1,.34,1.54.51l.37.11a14.84,14.84,0,0,0,1.58.44c34.36,6.27,44.34-20.64,44.34-20.64-8.39,10.91-23.27,13.8-37.37,10.59-.52-.12-1-.28-1.57-.44l-.38-.12c-.51-.16-1-.32-1.51-.49l-.22-.08c-.45-.15-.89-.32-1.33-.49-.12-.06-.25-.1-.37-.15-.49-.19-1-.39-1.45-.6L40,98.28l-1.21-.57-.35-.17c-.32-.15-.63-.32-.94-.48s-.43-.21-.63-.33l-1.13-.62c-.12-.08-.25-.15-.38-.22-.49-.29-1-.59-1.47-.9l-.39-.27c-.36-.22-.71-.46-1.05-.69l-.34-.24-1-.71c-.14-.11-.28-.22-.44-.33l-.89-.7-.39-.31c-.38-.31-.74-.62-1.11-.94a.45.45,0,0,0-.13-.1L27,89.63c-.12-.11-.21-.21-.33-.31-.28-.28-.56-.54-.83-.82l-.33-.33c-.35-.36-.7-.72-1-1.09a.34.34,0,0,1-.06-.06c-.35-.38-.7-.78-1-1.18l-.27-.33c-.25-.3-.5-.62-.76-.92a3,3,0,0,0-.27-.35c-.29-.38-.58-.77-.86-1.16C13.35,72.41,10.53,57.69,16.79,45.6"/><path class="cls-2" d="M33.3,44c-5.15,7.39-4.86,17.29-.85,25.11a30.39,30.39,0,0,0,2.27,3.79,17.93,17.93,0,0,0,2.65,3.3c.36.41.75.8,1.15,1.2l.3.3L40,78.82l0,0h0c.45.4.91.77,1.38,1.14.11.08.21.17.32.24.46.37.94.72,1.42,1.06l.06,0c.21.15.43.29.65.43l.31.2c.35.23.7.45,1.06.66l.16.08c.3.19.62.37.94.53.11.07.22.12.33.18l.66.34.11,0c.45.22.91.43,1.36.63l.31.13c.37.16.75.32,1.13.46.16,0,.32.12.48.18l1,.35.48.15a10.4,10.4,0,0,0,1.5.44c26.51,4.39,32.64-16,32.64-16-5.52,7.95-16.21,11.74-27.62,8.78-.51-.13-1-.28-1.5-.44l-.44-.14c-.36-.11-.72-.23-1.06-.36l-.48-.18c-.37-.15-.75-.29-1.12-.45l-.3-.13c-.47-.21-.94-.42-1.39-.64l-.69-.36-.4-.2c-.31-.16-.59-.33-.89-.5l-.2-.11c-.36-.22-.73-.43-1.06-.66l-.33-.21-.7-.46c-.48-.33-1-.69-1.42-1l-.32-.26A31.82,31.82,0,0,1,35.62,57.33a24,24,0,0,1,1.87-19.22"/><path class="cls-2" d="M51.85,37.6a15.45,15.45,0,0,0-1.24,14.91A21,21,0,0,0,62.68,63.78c.21.09.43.16.65.23l.29.09a7.79,7.79,0,0,0,.94.28c14.65,2.83,18.62-7.52,19.68-9-3.48,5-9.33,6.21-16.51,4.47-.56-.14-1.18-.34-1.73-.54s-1.39-.53-2.06-.85a21.38,21.38,0,0,1-3.62-2.21c-6.42-4.87-10.4-14.16-6.21-21.73"/><path class="cls-1" d="M391.25,58.48l.58,2.43a1,1,0,0,1-1,1.26"/><path class="cls-1" d="M345.05,54.32c-.15.67-.32,1.52-.44,2.08l-5.07,23.72,5.33-25Z"/><polygon class="cls-1" points="193.19 70.19 190.39 80.11 193.19 70.2 193.19 70.19"/><path class="cls-1" d="M391.83,60.91l-1.46-6.18c-1.15-4.47-4.42-6.58-11.76-6.58H347.75a1.46,1.46,0,0,0-1.56,1L334.48,104.7a3.86,3.86,0,0,0-.12,1.54c.08.36,1.46.29,2.16.29h10.69a11.62,11.62,0,0,0,2.39-.09c.4-.17.57-1.23.72-1.93L354.1,85l4.61-21.59a1.67,1.67,0,0,1,1.56-1.26l30.57,0a1,1,0,0,0,1-1.26"/><path class="cls-1" d="M435.32,38.4H421.76a3.09,3.09,0,0,0-2,1.35l-23.8,35c-.4.59-.86.57-1-.12L393.16,67a1.69,1.69,0,0,0-1.58-1.26h-15.3a1,1,0,0,0-.94,1.27l6.86,24a5.7,5.7,0,0,1,0,2.5L379,105.69c-.17.69.27.9,1,.9h15.1c.71,0,1.45-.21,1.62-.9L400,93.34a7.42,7.42,0,0,1,1.09-2.2l38.84-51.5c.44-.57.37-1.24-.34-1.24Z"/><path class="cls-1" d="M276.07,48.2h-13.8c-.71,0-1.43.25-1.57.94l-4.56,21.35L251.6,90.93c-.15.7-.85.65-1.56.65H241c-9,0-7.94-5.67-6.09-14.17l5.76-28.27c.12-.69-.34-.94-1-.94H226.43c-.71,0-1.41.25-1.55.94l-5.29,28.25c-2.64,15.27-2.72,28.71,15,29.15h28c.72,0,1.42-.24,1.57-.92l6-28.33,6-28.44S276.31,48.2,276.07,48.2Z"/><path class="cls-1" d="M138.58,48.15h-14.8c-.71,0-1.43.17-1.58.87l-2.67,11.55a1,1,0,0,0,1,1.23h14.17a1.75,1.75,0,0,0,1.57-1.33l2.58-11.64S139.07,48.15,138.58,48.15Z"/><path class="cls-1" d="M119.59,65.7A1.69,1.69,0,0,0,118,67l-2,8.81-4.45,20.35s-2.37,10.82-2.6,11.5c0,0-2,7.81-6.76,7.5a44.71,44.71,0,0,1-4.75-.65h0c-1.34-.41-1.43,1-1.59,1.67l-2.94,12.68a1,1,0,0,0,1,1.33,97.79,97.79,0,0,0,10.87.89h.74c11.11,0,17-6.53,20.74-24.28l4.4-20.54,4.13-19.11a1,1,0,0,0-1-1.34"/><path class="cls-1" d="M311,48.07c-24.89,0-30.84,15.38-34.14,30.63-3.31,15.55-3,27.84,22.73,27.84h23.57a1.74,1.74,0,0,0,1.53-1.34l2.54-9.86c.14-.7-.33-.91-1-.91H303c-8.39,0-11.4-2.58-11.1-8.38,0-.67.75-2.35,1.46-2.35h35.68c1.57,0,1.62-.92,1.62-.92,3.63-16.4,3.87-34.71-19.69-34.71m6.56,24.43c0,.77-2.43.62-2.43.62L295.72,73c-.67,0-.86-.94-.91-1.61a7.89,7.89,0,0,1,.11-1c1.5-5.21,6-8.18,13.07-8.18,8,0,9.69,4,9.69,8.35"/><path class="cls-1" d="M203.41,90.5s7-16.94,8.55-26.73c2.17-13.1-4.38-32.1-29.72-32.1-25.19,0-36.12,18.14-40.3,37.86s1.29,37.15,26.33,37l38.24,0a1.78,1.78,0,0,0,1.61-1.25L211.35,93a1,1,0,0,0-1-1.26l-3.08,0-3.08,0a.79.79,0,0,1-.87-.92.72.72,0,0,1,.07-.28M190.26,80.11l-2.87,9.8a1.83,1.83,0,0,1-1.72,1.15h-14.8c-11.23,0-14-8.68-11.23-21.63,2.74-13.24,8.17-21.43,19.22-22.26C194,46,197.05,56.7,193.39,69Z"/></svg>