<svg id="Layer_1" data-name="Layer 1" xmlns="http://www.w3.org/2000/svg" viewBox="0 0 391.45 201.3"><defs><style>.cls-1,.cls-3{fill:#00678f;}.cls-2,.cls-4{fill:#e48d1a;}.cls-3,.cls-4{fill-rule:evenodd;}.cls-5{font-size:29.38px;fill:#999b9e;font-family:HelveticaNeue-MediumExt, Helvetica Neue Medium Extended;font-weight:500;}</style></defs><path class="cls-1" d="M0,183.35H12.84V132.64l19.88,44.21c2.35,5.35,5.56,7.25,11.86,7.25s9.38-1.9,11.73-7.25l19.88-44.21v50.71H89V132.73c0-4.94-2-7.33-6-8.57-9.76-3-16.3-.41-19.26,6.18L44.21,174l-18.9-43.63c-2.84-6.59-9.5-9.22-19.26-6.18-4.07,1.24-6,3.63-6,8.57v50.62Z" transform="translate(1.65)"/><path class="cls-1" d="M99.71,142.08h12.84V170c-.12,1.51.48,5.08,7.52,5.19,3.59,0,27.7,0,27.92,0V141.94h12.87c.06,0,0,45.37,0,45.56.07,11.19-13.88,13.62-20.31,13.8H100v-8.63h40.62c8.26-.87,7.29-5,7.29-6.36v-3.37H120.6c-12.7-.12-20.79-5.66-20.89-12,0-.59.28-28.54,0-28.82Z" transform="translate(1.65)"/><path class="cls-2" d="M170.76,183.35h36.92a28.37,28.37,0,0,0,11.85-2.47c5.56-2.55,8.28-6,8.28-10.53V161c0-3.7-3.09-7.16-9.14-9.46a31.46,31.46,0,0,0-11-1.9H192.12c-5.19,0-7.66-1.56-8.27-5a3.48,3.48,0,0,1-.13-1.15v-5.85a3.25,3.25,0,0,1,.13-1.07c.61-2.63,2-3.37,6.54-3.78.37,0,.87-.09,1.24-.09H228.3v-8.56H192.24c-5.18,0-7.9.33-10.37,1.07-7.66,2.39-11,6.18-11,12.76v7.49c0,5.77,6.55,10.71,17.54,11.86,1.23.08,2.46.16,3.7.16h13.34a7,7,0,0,1,1.35.08c4.08.33,5.81,1.07,7,2.56a3.06,3.06,0,0,1,1,2.3v7.49A4.3,4.3,0,0,1,213,172.9a9.08,9.08,0,0,1-5.44,1.81c-.49,0-.86.08-1.35.08H170.76v8.56Z" transform="translate(1.65)"/><path class="cls-2" d="M307.92,168.45c0,8.81,6.54,13.75,19.75,14.74,1.24.08,2.47.16,3.71.16h33.46v-8.56H331.13c-7.53,0-10.37-1.89-10.37-6.42V124.08H307.92v44.37Z" transform="translate(1.65)"/><path class="cls-2" d="M236,168.9V138.38c0-7.75,5.45-12.46,16.21-13.94a23.73,23.73,0,0,1,3.47-.25h24.37a25.49,25.49,0,0,1,3.59.25c10.77,1.48,16.21,6.19,16.21,13.94V168.9c0,6.29-2.31,9.66-7.64,11.85l12.65,11.42H290l-10.24-9.23-10.3.65H255.68a28.11,28.11,0,0,1-7.55-1.08C240,180.29,236,176,236,168.9Zm13.86-.74a5.84,5.84,0,0,0,.25,1.32c.74,3.55,4.08,5.53,9.16,5.53h11.66l-10.71-9.68h14.91l9.34,8.44a6.09,6.09,0,0,0,3.26-4.12,4.39,4.39,0,0,0,.12-1.24V139.12a4,4,0,0,0-.12-1.15c-.75-3.3-4.09-5.2-9-5.2H259.27c-5.7,0-9.41,2.48-9.41,6.35v29Z" transform="translate(1.65)"/><path class="cls-1" d="M376.14,109.88c-7.89-.22-13.92.52-19.08,2.69-1.46.62-3.8.64-4,2.47.81.85.93,2.11,1.57,3.15a24.69,24.69,0,0,0,5.17,6.06c2,1.53,4.11,3.16,6.28,4.49,3.86,2.35,8.18,3.7,11.9,6.06,2.19,1.39,4.37,3.14,6.51,4.71,1.05.78,1.76,2,3.14,2.47v-.23c-.73-.92-.91-2.18-1.57-3.14l-2.92-2.92a47.91,47.91,0,0,0-10.33-9.87c-3.07-2.21-9.94-5.18-11.22-8.76l-.22-.22a50,50,0,0,0,6.73-1.57c3.38-.91,6.39-.67,9.88-1.57l4.71-1.35v-.9c-1.76-1.81-3-4.2-4.94-5.83a144,144,0,0,0-16.16-12.13c-3.13-2-7-3.26-10.32-4.93-1.12-.57-3.08-.86-3.82-1.8-1.75-2.22-2.7-5-4-7.63-2.82-5.43-5.59-11.35-8.08-17.06-1.7-3.89-2.82-7.73-4.94-11.22C320.16,34.09,309.19,24,292.19,14c-3.61-2.11-8-2.95-12.57-4l-7.4-.45c-1.51-.63-3.08-2.47-4.49-3.36-5.63-3.56-20.08-11.3-24.25-1.13-2.63,6.42,3.94,12.69,6.29,15.94,1.65,2.28,3.76,4.84,4.94,7.41.77,1.69.91,3.38,1.57,5.16,1.63,4.4,3.05,9.18,5.16,13.25A47.59,47.59,0,0,0,265,52.87c.83,1.12,2.25,1.62,2.47,3.36-1.39,1.94-1.46,5-2.24,7.41-3.51,11.06-2.19,24.81,2.91,33,1.57,2.51,5.26,7.9,10.33,5.83,4.44-1.8,3.44-7.4,4.71-12.34.29-1.12.11-1.95.68-2.7v.23q2,4,4,8.08c3,4.81,8.29,9.85,12.79,13.24,2.33,1.76,4.17,4.81,7.18,5.84v-.23h-.22c-.58-.91-1.5-1.28-2.24-2a51.93,51.93,0,0,1-5.17-5.83,137.62,137.62,0,0,1-11-18c-1.57-3-2.93-6.35-4.26-9.43-.51-1.18-.51-3-1.57-3.59-1.45,2.25-3.59,4.08-4.72,6.74-1.79,4.25-2,9.43-2.69,14.81-.39.14-.22,0-.45.22-3.12-.75-4.22-4-5.38-6.73-2.94-7-3.49-18.22-.9-26.26C270,62.46,273,55.91,271.77,54c-.59-1.92-2.52-3-3.6-4.49a36.05,36.05,0,0,1-3.59-6.29c-2.4-5.44-3.53-11.55-6.06-17.06a49.24,49.24,0,0,0-4.94-7.63c-1.86-2.59-3.94-4.5-5.38-7.63-.52-1.11-1.21-2.9-.45-4A1.79,1.79,0,0,1,249.1,5.5c1.3-1,4.92.34,6.28.9A55,55,0,0,1,265,11.34c1.47,1,3,2.85,4.72,3.37h2c3.16.72,6.7.22,9.65,1.12a58.21,58.21,0,0,1,14.14,6.73,87.57,87.57,0,0,1,30.75,33.67C327.48,58.47,328,60.6,329,63c2.07,4.77,4.68,9.69,6.74,14.36s4.05,9.37,7,13.25c1.52,2,7.42,3.13,10.1,4.26,1.88.79,4.95,1.62,6.73,2.69,3.4,2,6.69,4.49,9.88,6.74,1.59,1.12,6.49,3.58,6.73,5.61Z" transform="translate(1.65)"/><path class="cls-3" d="M275.81,24.36a16,16,0,0,0-4,.45V25H272c.79,1.62,2.17,2.65,3.14,4l2.25,4.72.22-.23c1.39-1,2-2.54,2-4.94-.56-.58-.64-1.32-1.12-2-.64-.93-1.88-1.46-2.69-2.24Z" transform="translate(1.65)"/><path class="cls-4" d="M370.87,174.55a9.47,9.47,0,1,0,9.47-9.46,9.34,9.34,0,0,0-9.47,9.46Zm16.81,0a7.35,7.35,0,1,1-7.34-7.5,7.32,7.32,0,0,1,7.34,7.5Zm-4.8,5.4H385l-3.1-4.74c1.67-.18,2.93-1,2.93-3,0-2.19-1.39-3.1-4.07-3.1h-4.21V180h1.82v-4.67h1.69l2.82,4.67Zm-4.51-6.18v-3.11h2.09c1.09,0,2.4.21,2.4,1.47,0,1.51-1.19,1.64-2.55,1.64Z" transform="translate(1.65)"/><text class="cls-5" transform="translate(0 109.5)">Powered by</text></svg>